<?xml version="1.0" standalone="no"?><!DOCTYPE svg PUBLIC "-//W3C//DTD SVG 1.1//EN" "http://www.w3.org/Graphics/SVG/1.1/DTD/svg11.dtd"><svg t="1735210787062" class="icon" viewBox="0 0 1024 1024" version="1.1" xmlns="http://www.w3.org/2000/svg" p-id="1341" width="32" height="32" xmlns:xlink="http://www.w3.org/1999/xlink"><path d="M910.933333 458.666667c-61.866667 66.133333-164.266667 174.933333-164.266667 174.933333s19.2 155.733333 29.866667 243.2c4.266667 34.133333-49.066667 34.133333-49.066667 34.133333L725.333333 908.8c-81.066667-38.4-217.6-102.4-217.6-102.4s-140.8 66.133333-221.866667 104.533333c-32 14.933333-51.2-2.133333-46.933333-38.4 10.666667-89.6 29.866667-238.933333 29.866667-238.933333s-87.466667-93.866667-149.333333-160C85.333333 437.333333 87.466667 405.333333 123.733333 396.8c87.466667-17.066667 236.8-44.8 236.8-44.8S441.6 202.666667 484.266667 128c14.933333-25.6 34.133333-27.733333 46.933333-2.133333 40.533333 74.666667 123.733333 226.133333 123.733333 226.133333s162.133333 32 247.466667 46.933333C934.4 405.333333 936.533333 428.8 910.933333 458.666667zM631.466667 401.066667 507.733333 177.066667l-119.466667 219.733333-243.2 42.666667 172.8 181.333333-34.133333 245.333333 224-108.8 224 102.4L695.466667 618.666667l177.066667-179.2L631.466667 401.066667z" p-id="1342"></path></svg>